<?xml version="1.0" encoding="UTF-8"?>
<svg id="Capa_1" xmlns="http://www.w3.org/2000/svg" xmlns:xlink="http://www.w3.org/1999/xlink" viewBox="0 0 32 32">
  <defs>
    <style>
      .cls-1 {
        fill: #fff;
      }

      .cls-2 {
        fill: none;
      }

      .cls-3 {
        fill: #00519f;
      }
    </style>
    <symbol id="COMFANDI-logotipo-blanco-sin-contenedor-sobre-azules" viewBox="0 0 283.46 87.74">
      <g>
        <rect class="cls-2" width="283.46" height="87.74"/>
        <path class="cls-1" d="M41.34,61.28c-2.92,0-5.49-.59-7.71-1.76-2.22-1.17-3.94-2.84-5.15-4.99-1.21-2.15-1.81-4.62-1.81-7.39s.58-5.17,1.73-7.28c1.16-2.12,2.79-3.75,4.91-4.91,2.12-1.16,4.54-1.73,7.28-1.73,2.21,0,4.3.48,6.3,1.44,1.99.96,3.59,2.28,4.8,3.95l-4.32,4.27c-.71-1.07-1.63-1.95-2.75-2.64-1.12-.69-2.39-1.04-3.81-1.04-1.32,0-2.53.33-3.63.99-1.1.66-1.97,1.59-2.61,2.8-.64,1.21-.96,2.63-.96,4.27,0,1.53.34,2.89,1.01,4.08.68,1.19,1.63,2.13,2.85,2.8,1.23.68,2.68,1.01,4.35,1.01,1.49,0,2.86-.2,4.11-.59,1.24-.39,2.54-.96,3.89-1.71l1.71,5.76c-2.88,1.78-6.28,2.67-10.19,2.67ZM68.62,61.28c-2.81,0-5.33-.6-7.55-1.81-2.22-1.21-3.96-2.88-5.2-5.02-1.25-2.13-1.87-4.54-1.87-7.2s.62-5.07,1.87-7.2c1.24-2.13,2.98-3.81,5.2-5.02,2.22-1.21,4.74-1.81,7.55-1.81s5.42.61,7.63,1.81c2.21,1.21,3.93,2.87,5.18,4.99,1.24,2.12,1.87,4.53,1.87,7.23s-.62,5.11-1.87,7.23c-1.25,2.12-2.97,3.78-5.18,4.99-2.21,1.21-4.75,1.81-7.63,1.81ZM68.62,55.2c1.53,0,2.88-.34,4.05-1.01,1.17-.68,2.09-1.62,2.75-2.83.66-1.21.99-2.6.99-4.16s-.33-2.89-.99-4.08c-.66-1.19-1.57-2.12-2.75-2.8-1.17-.68-2.51-1.01-4-1.01s-2.88.34-4.05,1.01c-1.17.68-2.1,1.61-2.77,2.8-.68,1.19-1.01,2.57-1.01,4.13s.34,2.94,1.01,4.14c.68,1.19,1.6,2.13,2.77,2.8,1.17.68,2.51,1.01,4,1.01ZM127.89,35.99c-1.58-1.88-3.92-2.83-7.02-2.83-2.1,0-3.95.44-5.55,1.31-1.54.84-2.95,1.97-4.23,3.39-.33-.69-.72-1.32-1.18-1.87-1.58-1.88-3.92-2.83-7.02-2.83-2.06,0-3.88.45-5.44,1.33-1.2.68-2.24,1.52-3.15,2.54v-3.28h-6.62v27h6.62v-18.03c.89-1.07,1.89-1.92,3.01-2.56,1.12-.64,2.28-.96,3.49-.96,1.64,0,2.85.49,3.65,1.47.8.98,1.2,2.46,1.2,4.46v15.63h6.62v-16.59c0-.56-.02-1.09-.06-1.61.85-.95,1.83-1.74,2.94-2.36,1.17-.66,2.38-.99,3.63-.99,1.64,0,2.85.49,3.65,1.47.8.98,1.2,2.46,1.2,4.46v15.63h6.62v-16.59c0-3.56-.79-6.28-2.37-8.16ZM180.6,53.43c-.39-.82-.59-1.8-.59-2.93v-16.75h-5.98l-.18,1.63c-1.04-.6-2.18-1.09-3.42-1.47-1.51-.46-3.07-.69-4.67-.69-2.67,0-5.06.6-7.18,1.79-2.12,1.19-3.78,2.87-4.99,5.04-1.21,2.17-1.81,4.66-1.81,7.47s.54,5.2,1.63,7.28c1.08,2.08,2.58,3.68,4.48,4.8,1.9,1.12,4.05,1.68,6.43,1.68,1.67,0,3.26-.31,4.78-.93,1.51-.62,2.8-1.56,3.87-2.8.38-.45.72-.93,1.01-1.44.27.71.62,1.37,1.07,1.98,1.14,1.57,2.7,2.58,4.7,3.04l2.99-5.76c-1.03-.46-1.74-1.1-2.13-1.92ZM172.49,50.95c-.64,1.3-1.54,2.33-2.69,3.09-1.16.77-2.48,1.15-3.97,1.15-2.13,0-3.87-.7-5.2-2.11-1.33-1.4-2-3.26-2-5.58,0-1.64.32-3.08.96-4.32.64-1.24,1.58-2.21,2.83-2.91,1.24-.69,2.69-1.04,4.32-1.04,1.17,0,2.32.15,3.44.45,1.12.3,2.2.7,3.23,1.2v5.76c.04,1.57-.27,3-.91,4.29ZM209.11,36.15c-1.71-1.99-4.18-2.99-7.42-2.99-2.13,0-4.02.45-5.66,1.33-1.27.69-2.39,1.56-3.36,2.59v-3.34h-6.62v27h6.62v-18.03c.92-1.07,1.99-1.92,3.2-2.56,1.21-.64,2.45-.96,3.73-.96,1.78,0,3.12.54,4.03,1.63.91,1.09,1.36,2.66,1.36,4.72v15.21h6.67v-16.17c0-3.63-.85-6.44-2.56-8.43ZM237.64,20.25v14.68c-1.1-.49-2.18-.87-3.23-1.15-1.41-.37-2.89-.56-4.45-.56-2.7,0-5.11.6-7.23,1.79-2.12,1.19-3.76,2.87-4.94,5.04-1.17,2.17-1.76,4.66-1.76,7.47s.54,5.2,1.63,7.28c1.08,2.08,2.58,3.68,4.48,4.8,1.9,1.12,4.05,1.68,6.43,1.68,1.71,0,3.31-.35,4.8-1.04,1.49-.69,2.76-1.72,3.79-3.09.16-.21.31-.43.45-.66l.03,4.26h6.62V20.25h-6.62ZM236.73,50.95c-.64,1.3-1.54,2.33-2.69,3.09-1.16.77-2.48,1.15-3.97,1.15-2.13,0-3.87-.7-5.2-2.11-1.33-1.4-2-3.26-2-5.58,0-1.6.32-3.03.96-4.29.64-1.26,1.55-2.24,2.72-2.93,1.17-.69,2.54-1.04,4.11-1.04,2.45,0,4.78.55,6.99,1.65v5.76c.04,1.57-.27,3-.91,4.29ZM253.27,29.16c-1.14,0-2.1-.39-2.88-1.17-.78-.78-1.17-1.74-1.17-2.88s.39-2.15,1.17-2.93c.78-.78,1.74-1.17,2.88-1.17s2.15.39,2.93,1.17c.78.78,1.17,1.76,1.17,2.93s-.39,2.1-1.17,2.88c-.78.78-1.76,1.17-2.93,1.17ZM249.85,33.75h6.62v27h-6.62v-27ZM144.18,32.73c0-2.13.57-3.73,1.71-4.8,1.14-1.07,2.72-1.6,4.75-1.6h1.23l-.85-5.98h-.53c-4.2,0-7.4,1.03-9.6,3.09-2.21,2.06-3.31,5.14-3.31,9.23v1.07h-4.75v5.92h4.75v20.65c-.05,3.45-1.85,5.46-5.44,6.03l1.55,5.98c2.31-.25,4.23-.77,5.76-1.55,1.53-.78,2.7-1.97,3.52-3.55.82-1.58,1.23-3.64,1.23-6.16v-21.39h6.72v-5.92h-6.72v-1.01Z"/>
      </g>
    </symbol>
  </defs>
  <rect class="cls-3" x=".1" y=".1" width="31.79" height="31.79" rx="4.03" ry="4.03"/>
  <use width="283.46" height="87.74" transform="translate(-.68 10.37) scale(.12)" xlink:href="#COMFANDI-logotipo-blanco-sin-contenedor-sobre-azules"/>
</svg>